<svg xmlns="http://www.w3.org/2000/svg" width="374.969" height="375" viewBox="0 0 374.969 375">
  <defs>
    <style>
      .cls-1 {
        fill: #54075b;
        fill-rule: evenodd;
      }
    </style>
  </defs>
  <path id="math.png_math.svg" data-name="math.png, math.svg" class="cls-1" d="M943.122,4636.16H1067.19a24.774,24.774,0,0,0,24.82-24.74V4487.75a24.772,24.772,0,0,0-24.82-24.73H943.122a24.769,24.769,0,0,0-24.814,24.73v123.67A24.776,24.776,0,0,0,943.122,4636.16Zm18.805-96.52h33.255V4506.5a9.979,9.979,0,0,1,19.958,0v33.14h33.25a9.945,9.945,0,1,1,0,19.89h-33.25v33.15a9.979,9.979,0,0,1-19.958,0v-33.15H961.927A9.945,9.945,0,1,1,961.927,4539.64Zm-220.072,298.4H865.926a24.771,24.771,0,0,0,24.814-24.74V4689.63a24.778,24.778,0,0,0-24.814-24.74H741.855a24.777,24.777,0,0,0-24.814,24.74V4813.3A24.783,24.783,0,0,0,741.855,4838.04Zm24.419-124.07a9.961,9.961,0,0,1,14.1,0l23.506,23.44,23.514-23.44a9.96,9.96,0,0,1,14.112,14.06l-23.514,23.44,23.514,23.43a9.96,9.96,0,0,1-14.112,14.06l-23.514-23.43-23.506,23.43a9.957,9.957,0,1,1-14.1-14.06l23.5-23.43-23.5-23.44A9.907,9.907,0,0,1,766.274,4713.97Zm-24.419-77.81H865.926a24.771,24.771,0,0,0,24.814-24.74V4487.75a24.769,24.769,0,0,0-24.814-24.73H741.855a24.769,24.769,0,0,0-24.814,24.73v123.67A24.771,24.771,0,0,0,741.855,4636.16Zm24.814-94.82h74.442a8.245,8.245,0,1,1,0,16.49H766.669A8.245,8.245,0,1,1,766.669,4541.34Zm176.453,296.7H1067.19a24.774,24.774,0,0,0,24.82-24.74V4689.63a24.781,24.781,0,0,0-24.82-24.74H943.122a24.783,24.783,0,0,0-24.814,24.74V4813.3A24.789,24.789,0,0,0,943.122,4838.04Zm62.038-34.99a12.365,12.365,0,1,1,12.4-12.37A12.385,12.385,0,0,1,1005.16,4803.05Zm0-90.69a12.365,12.365,0,1,1-12.409,12.37A12.372,12.372,0,0,1,1005.16,4712.36Zm-37.224,38.13h74.444a8.245,8.245,0,1,1,0,16.49H967.936A8.245,8.245,0,1,1,967.936,4750.49Z" transform="translate(-717.031 -4463.03)"/>
</svg>
