<svg xmlns="http://www.w3.org/2000/svg" width="431.94" height="370" viewBox="0 0 431.94 370">
  <defs>
    <style>
      .cls-1 {
        fill: #54075b;
        fill-rule: evenodd;
      }
    </style>
  </defs>
  <path id="reading.png_reading.svg" data-name="reading.png, reading.svg" class="cls-1" d="M1834.04,4790.84a49.2,49.2,0,0,0,49.15,49.15h355.46v-21.84h-22.76v-54.61h22.76v-9.56h27.31v-21.84h-16.38v-54.61h16.38v-21.85h-17.75v-18.66l-26.97-50.52h28.34v-29.37l-71.29-87.12H1926.8l-64.86,102.18a48.911,48.911,0,0,0,30.33,87.09,48.8,48.8,0,0,0-13.41,82.85A49.041,49.041,0,0,0,1834.04,4790.84Zm31.4-180.66a27.224,27.224,0,0,1,13.96-23.68h325.57v50.99H1892.75A27.352,27.352,0,0,1,1865.44,4610.18Zm45.06,67.35h317.23v54.61H1910.5A27.305,27.305,0,1,1,1910.5,4677.53Zm-27.31,86.01h310.86v54.61H1883.19A27.305,27.305,0,0,1,1883.19,4763.54Z" transform="translate(-1834.03 -4470)"/>
</svg>
