<svg xmlns="http://www.w3.org/2000/svg" width="400" height="374.25" viewBox="0 0 400 374.25">
  <defs>
    <style>
      .cls-1 {
        fill: #54075b;
        fill-rule: evenodd;
      }
    </style>
  </defs>
  <path id="skills.png_skills.svg" data-name="skills.png, skills.svg" class="cls-1" d="M468.659,4791.56H442.481v-21.85H153.031v21.85H127.693v21.01H108.3v21.87H487.235v-21.87H468.659v-21.01Zm-253.175-39.52V4642.71H228.14v-14.37a15.929,15.929,0,0,0-15.967-15.91H156.317a15.927,15.927,0,0,0-15.955,15.91v14.37h13.509v109.33h61.613Zm227,0V4642.71h13.5v-14.35a15.924,15.924,0,0,0-15.942-15.91H384.2a15.915,15.915,0,0,0-15.942,15.91v14.36h13.5v109.32h60.723Zm-113.932,0V4642.71h13.51v-14.37a15.924,15.924,0,0,0-15.943-15.91H270.261a15.927,15.927,0,0,0-15.955,15.91v14.37h12.643v109.33h61.6Zm-17.46-288.1a30.193,30.193,0,0,0-29.2,0l-167.867,92.53a33.827,33.827,0,0,0-17.536,29.63v10.38h400.02V4586.1a33.857,33.857,0,0,0-17.523-29.64Zm-78.258,87.13a3.629,3.629,0,0,1-1.756-6.81l50.726-28.01a30.343,30.343,0,0,1,29.251,0l50.712,28.01a3.62,3.62,0,0,1-1.731,6.81h-127.2Z" transform="translate(-96.5 -4460.19)"/>
</svg>
